<?xml version="1.0" encoding="UTF-8"?>
<svg id="svg2" xmlns="http://www.w3.org/2000/svg" version="1.1" xmlns:cc="http://creativecommons.org/ns#" xmlns:dc="http://purl.org/dc/elements/1.1/" xmlns:rdf="http://www.w3.org/1999/02/22-rdf-syntax-ns#" xmlns:svg="http://www.w3.org/2000/svg" viewBox="0 0 647.17 750.98">
  <!-- Generator: Adobe Illustrator 29.6.1, SVG Export Plug-In . SVG Version: 2.1.1 Build 9)  -->
  <defs>
    <style>
      .st0 {
        fill: #fff;
        fill-rule: evenodd;
      }
    </style>
  </defs>
  <path class="st0" d="M293.05,227.72v-72.4c0-11.51-5.32-16.86-16.37-16.86h-18.01v106.13h18.01c11.05,0,16.37-5.35,16.37-16.87Z"/>
  <polygon class="st0" points="244.4 509.06 244.43 509.06 244.07 507.98 243.6 506.78 243.12 505.7 242.76 504.62 242.29 503.54 241.81 502.34 241.45 501.26 240.97 500.18 240.5 499.11 240.14 498.03 239.66 496.83 239.31 495.75 238.83 494.67 238.35 493.59 237.99 492.51 237.52 491.31 237.04 490.23 236.68 489.16 236.2 488.08 235.73 486.88 235.37 485.8 234.89 484.72 234.42 485.8 234.06 486.88 233.58 488.08 233.1 489.16 232.75 490.23 232.27 491.31 231.79 492.51 231.32 493.59 230.96 494.67 230.48 495.75 230.01 496.83 229.65 498.03 229.17 499.11 228.7 500.18 228.33 501.26 227.86 502.34 227.39 503.54 226.9 504.62 226.55 505.7 226.08 506.78 225.59 507.98 225.23 509.06 224.77 510.14 244.88 510.14 244.4 509.06"/>
  <path class="st0" d="M588.4,0H58.77C15.84,0,0,15.84,0,58.79v518.23c0,4.86.2,9.37.63,13.56.98,9.37,1.16,18.46,9.88,28.8.85,1.01,9.75,7.64,9.75,7.64,4.79,2.35,8.06,4.08,13.46,6.25l260.79,109.26c13.54,6.21,19.2,8.63,29.03,8.43h.08c9.83.19,15.49-2.23,29.03-8.43l260.79-109.26c5.4-2.17,8.67-3.9,13.46-6.25,0,0,8.9-6.62,9.75-7.64,8.72-10.34,8.9-19.43,9.88-28.8.43-4.18.63-8.7.63-13.56V58.79C647.17,15.84,631.33,0,588.4,0ZM356.61,99.8h43.81v287.93h-43.81V99.8ZM337.48,491.27l.59.96.6-.96.6-1.07.71-.96.6-1.08.59-.95.6-1.08.71-.96.6-1.08.6-.96.59-.95.72-1.07.59-.96.6-1.07.6-.96.71-1.08.6-.95.6-1.07.59-.96.6-.96.71-1.07.6-.96.6-1.07.59-.96.72-1.07.59-.96.6-.96.6-1.08.71-.95.6-1.08.59-.96.6-1.08.72-.95.59-1.07.6-.96h24.39v87.01h-1.19,0s-21.78-.01-21.78-.01v-51.45l-.6.96-.71,1.08-.6.96-.71.96-.6,1.07-.72.96-.59.96-.6,1.08-.71.96-.6.96-.72.96-.59,1.08-.72.96-.59.96-.6,1.08-.72.96-.59.96-.72,1.07-.59.96-.72.96-.59,1.08-.6.96-.72.96-.59,1.08-.72.96-.59.96-.72.96-.6,1.07-.59.96-.72.96-.59,1.08-.72.96-.6.96-.71,1.08-.6.96h-.47l-.72-1.08-.6-.96-.71-1.08-.6-.96-.71-1.07-.6-.96-.71-1.08-.6-.96-.72-1.07-.59-.96-.72-1.08-.59-.96-.72-1.08-.6-.96-.71-1.08-.6-.96-.71-1.08-.72-.96-.6-1.08-.71-.96-.6-1.08-.71-.96-.6-1.08-.71-.96-.6-1.08-.72-.96-.59-1.08-.72-.96-.59-1.07-.72-.96-.6-1.08-.71-.95-.6-1.08-.71-.96v51.21h-22.61v-87.01h24.4l.59.96.6,1.07.71.95.6,1.08.6.96.59,1.08.6.95.71,1.08.6.96.6.96.59,1.07.6.96.71,1.07.6.96.6,1.07.59.96.72.96.6,1.07.59.95.6,1.08.59.96.72,1.07.6.96.59,1.07.6.95.59.96.72,1.08.6.96.59,1.08.6.95.59,1.08.72.96.6,1.07ZM214.86,99.8h68.77c35.61,0,53.21,17.69,53.21,53.48v76.51c0,35.79-17.6,53.47-53.21,53.47h-24.97v104.48h-43.8V99.8ZM95.47,99.79h97.43v39.9h-53.63v81.45h51.58v39.9h-51.58v86.78h54.45v39.9h-98.25V99.79ZM178.32,533.1l-.83.72h.06s-.96.71-.96.71l-.83.6-.96.72-.95.6-.95.72-.96.6-.95.6-1.08.6-1.07.6-1.07.6-1.07.47-1.07.6-1.19.48-1.07.48-1.2.48-1.07.48-1.07.36-1.07.36-1.07.36-1.19.36-1.07.36-1.2.24-1.07.24-1.19.24-1.19.24-1.19.12-1.31.12-1.19.12-1.31.12-1.2.12-1.31.12h-5.12l-1.19-.12-1.31-.12-1.19-.12-1.19-.12-1.2-.12-1.19-.24-1.19-.24-1.07-.24-1.19-.24-1.07-.36-1.19-.24-1.08-.36-1.07-.48-1.07-.36-1.19-.48-1.08-.48-1.07-.48-1.07-.48-1.08-.6-.95-.59-1.07-.6-.96-.6-.95-.6-.96-.72-.95-.72-.95-.72-.84-.72-.83-.72-.84-.84-.83-.72-.84-.84-.83-.84-.72-.84-.71-.96-.72-.84-.6-.96-.71-.96-.6-.95-.59-.96-.6-1.08-.6-.96-.47-1.08-.48-1.08-.48-1.08-.47-1.07-.36-.96-.48-1.08-.24-1.08-.35-1.07-.24-1.19-.36-1.08-.24-1.19-.12-1.08-.24-1.2-.12-1.07-.12-1.2-.11-1.2-.12-1.19v-3.95l.12-1.31v-1.19l.11-1.2.12-1.31.24-1.19.12-1.2.24-1.08.36-1.19.24-1.2.35-1.08.36-1.19.36-1.08.48-1.2.47-1.07.48-1.08.48-1.08.47-1.08.6-1.08.6-.96.59-.96.6-.96.6-.96.71-.96.72-.96.71-.96.72-.84.83-.84.72-.84.83-.83.84-.84.83-.72.96-.84.83-.72.95-.72.96-.6.95-.72.96-.6.95-.6,1.07-.6,1.08-.6,1.07-.6,1.07-.48,1.07-.48,1.19-.6.95-.36,1.19-.36,1.08-.48,1.07-.24,1.07-.36,1.19-.24,1.07-.36,1.19-.24,1.19-.12,1.19-.24,1.19-.12,1.19-.12,1.19-.12,1.2-.12h5.11l1.32.12,1.31.12h1.19l1.19.12,1.31.24,1.08.12,1.19.24,1.19.24,1.07.24,1.07.24,1.07.24,1.08.36,1.07.24.95.36,1.08.36,1.07.48,1.07.48,1.08.48,1.07.6,1.07.48.96.6,1.07.6.95.6,1.08.6.95.72.95.6.96.72.95.72.96.84.95.72-.72.96-.83.84-.72.96-.83.96-.72.96-.71.84-.84.96-.71.96-.72.84-.83.96-.72.96-.83.96-.72.84-.71.96-.84.96-.71.96-.84.84-.71.96-.96-.72-.95-.84-.96-.6-.95-.72-.95-.6-.96-.6-.95-.6-1.07-.6-.96-.48-.95-.48-.96-.36-1.07-.36-1.07-.36-1.08-.24-1.19-.24-1.19-.24-1.19-.12-1.31-.12-1.31-.12h-2.5l-1.19.12-1.08.12-1.19.24-1.07.24-1.08.36-1.07.36-1.07.48-1.07.48-.96.6-.95.6-.96.6-.83.72-.84.72-.83.72-.72.84-.83.84-.72.96-.59.84-.6.96-.59,1.08-.6.96-.48,1.08-.36,1.08-.47,1.08-.36,1.19-.24,1.19-.24,1.07-.24,1.32-.12,1.19-.11,1.19v2.75l.11,1.19.12,1.08.12,1.2.24,1.07.24,1.08.24,1.07.36,1.08.35.96.48,1.19.48,1.08.59,1.08.6.96.6.96.71.96.72.84.83.84.72.84.83.72.96.72.95.72.95.6.96.6,1.07.48,1.07.48,1.07.48,1.19.36,1.19.36,1.2.24,1.19.24,1.19.12,1.31.12h2.73l1.32-.12,1.31-.12,1.19-.12,1.19-.24,1.2-.24,1.19-.36,1.07-.24,1.07-.48.96-.48,1.07-.48.84-.48.95-.6v-10.88h-17.38v-17.45h39.27v38.84ZM187.65,543.84l.48-1.08.48-1.08.47-1.19.36-1.07.48-1.07.48-1.08.47-1.08.48-1.08.48-1.2.47-1.08.48-1.07.36-1.08.48-1.08.47-1.08.48-1.19.48-1.08.47-1.08.48-1.07.48-1.08.36-1.08.47-1.2.48-1.07.48-1.08.47-1.08.48-1.08.48-1.08.47-1.2.36-1.07.48-1.08.48-1.08.47-1.08.48-1.08.48-1.19.47-1.08.48-1.08.36-1.08.48-1.07.47-1.08.48-1.2.48-1.08.47-1.08.48-1.08.48-1.07.36-1.08.47-1.07.48-1.2.48-1.07.47-1.08.48-1.08.48-1.07.47-1.08.36-1.2.48-1.07.48-1.08.47-1.08.48-1.08.48-1.08.47-1.2.48-1.07.36-1.08.48-1.08.47-1.08.48-1.08.48-1.19.47-1.08.48-1.08.48-1.08.35-1.07.48-1.08.48-1.19.48-1.08.47-1.08.48-1.08.48-1.08.47-1.07.36-1.2.48-1.08.48-1.08.47-1.08h22.02l.48,1.08.48,1.08.47,1.08.48,1.2.36,1.07.47,1.08.48,1.08.48,1.08.48,1.08.47,1.19.48,1.08.48,1.07.35,1.08.48,1.08.48,1.08.48,1.19.47,1.08.48,1.08.48,1.08.47,1.08.36,1.07.48,1.2.47,1.08.48,1.08.48,1.08.48,1.08.47,1.07.48,1.2.36,1.08.47,1.07.48,1.08.48,1.08.48,1.07.47,1.2.48,1.07.48,1.08.35,1.07.48,1.08.48,1.08.47,1.08.48,1.2.48,1.08.48,1.07.47,1.08.36,1.08.48,1.08.47,1.19.48,1.08.48,1.08.48,1.08.47,1.08.48,1.07.36,1.2.47,1.08.48,1.08.48,1.08.47,1.08.48,1.07.48,1.2.48,1.08.35,1.08.48,1.07.48,1.08.47,1.08.48,1.19.48,1.08.48,1.08.47,1.08.36,1.07.48,1.08.47,1.2.48,1.08.48,1.08.47,1.08.48,1.07.48,1.07.36,1.19.47,1.08.48,1.08.48,1.08h-24.65l-.47-1.08-.36-1.08-.48-1.08-.48-1.19-.35-1.07-.48-1.07-.48-1.08-.35-1.08-.48-1.08-.48-1.08-.36-1.08-.47-1.19-.48-1.08-.36-1.08-.48-1.08h-34.15l-.47,1.08-.36,1.08-.48,1.08-.48,1.19-.35,1.08-.48,1.08-.48,1.08-.36,1.08-.47,1.08-.48,1.07-.36,1.07-.47,1.19-.48,1.08-.36,1.08-.48,1.08h-24.03l.47-1.08ZM321.56,690.29l-122.76-42.21h250.74l-127.98,42.21ZM470.64,544.92h-1.19.01s-68.19,0-68.19,0v-87.01h68.78v19.73h-46.06v14.22h41.42v18.52h-41.42v14.82h46.65v19.72ZM423.57,336.71v-185.92c0-35.78,17.61-53.47,53.22-53.47h21.29c35.61,0,52.8,17.28,52.8,53.06v58.83h-42.98v-56.36c0-11.52-5.33-16.86-16.38-16.86h-7.37c-11.46,0-16.78,5.34-16.78,16.86v181.82c0,11.52,5.32,16.86,16.78,16.86h8.19c11.05,0,16.37-5.34,16.37-16.86v-65.01h42.99v67.05c0,35.79-17.59,53.47-53.21,53.47h-21.7c-35.61,0-53.22-17.68-53.22-53.47ZM553.01,519.69l-.12,1.31.03.02-.12,1.2-.12,1.31-.24,1.2-.36,1.19-.23,1.08-.36,1.2-.48,1.08-.48.96-.47,1.07-.6.96-.6.96-.71.96-.6.96-.71.84-.84.84-.71.72-.95.84-.83.72-.96.72-.95.59-.95.72-1.08.6-1.07.48-1.07.6-1.2.48-1.19.48-1.19.36-1.19.36-1.08.36-1.19.24-1.07.24-1.07.24-1.2.24-1.19.12-1.07.12-1.2.12-1.31.12-1.19.12h-5l-1.19-.12h-1.31l-1.19-.12-1.19-.12-1.31-.12-1.19-.24-1.19-.12-1.2-.24-1.19-.24-1.19-.24-1.19-.24-1.19-.36-1.07-.24-1.19-.36-1.19-.36-1.07-.48-1.19-.36-1.07-.36-1.19-.48-1.07-.48-1.07-.48-1.07-.59-1.07-.48-1.07-.6-.95-.6-1.08-.6-.95-.6-.96-.6-.95-.72-.95-.72-.96-.72-.95-.72-.84-.72-.95-.84.72-.96.83-.84.72-.96.83-.96.72-.84.71-.96.84-.96.71-.84.84-.96.71-.84.84-.96.71-.96.72-.84.83-.96.72-.96.83-.84.72-.96.95.72,1.07.72.96.72,1.07.72.96.6,1.07.72.95.6,1.08.48.95.6,1.07.48,1.08.48,1.07.48,1.07.36,1.07.48,1.19.36,1.19.36,1.07.36,1.2.24,1.19.24,1.19.24,1.31.12,1.19.24h1.19l1.31.12h2.62l1.31-.12,1.2-.24,1.07-.24,1.07-.24.96-.36.83-.48.96-.72.71-.84.48-.96.36-1.07.12-1.2v-.24l-.12-1.43-.48-1.2-.6-.84-.83-.72-.96-.72-.95-.48-1.07-.48-1.2-.48-1.43-.6-.83-.24-.95-.24-1.08-.36-1.07-.24-1.19-.36-1.2-.24-1.31-.36-1.19-.24-1.31-.36-1.19-.24-1.2-.36-1.19-.24-1.19-.36-1.08-.36-1.19-.24-1.07-.36-1.07-.36-1.08-.36-1.31-.48-1.19-.48-1.19-.48-1.19-.48-1.07-.6-1.19-.6-.96-.6-1.07-.6-.95-.72-.96-.6-.83-.72-.84-.84-.83-.84-.72-.84-.71-.84-.6-.84-.59-.96-.6-1.07-.48-.83-.36-.96-.35-1.08-.36-.96-.24-1.2-.24-1.08-.12-1.19-.12-1.2-.12-1.31v-2.75l.12-1.19.12-1.08.12-1.2.24-1.07.24-1.08.36-1.08.24-1.07.47-1.08.48-1.08.48-1.07.59-1.08.6-1.07.71-.96.72-.96.83-.96.84-.84.83-.96.96-.84.83-.6.96-.72.95-.72.95-.6,1.08-.6,1.07-.48,1.07-.6,1.08-.48,1.19-.36,1.19-.48,1.08-.36.95-.24,1.07-.24,1.07-.24,1.19-.24,1.07-.24,1.19-.12,1.2-.12,1.19-.12,1.19-.12h5.12l1.31.12,1.31.12h1.19l1.31.12,1.19.24,1.31.12,1.19.24,1.08.24,1.19.24,1.19.24,1.07.24,1.19.36,1.07.36,1.07.24,1.19.48,1.07.36,1.07.48,1.07.48,1.19.48,1.07.6.95.48,1.08.6,1.07.6.95.6,1.07.72.95.6.96.72.95.72.95.72-.71.96-.6.96-.71.96-.72.96-.71,1.07-.6.96-.72.96-.71.96-.6.96-.71.96-.72.96-.6.96-.71,1.08-.72.96-.71.96-.6.96-.71.96-.96-.72-1.07-.6-.95-.6-.96-.72-1.07-.48-.96-.6-1.07-.48-.95-.48-1.08-.48-.95-.48-1.07-.36-.96-.48-1.31-.36-1.19-.36-1.19-.36-1.2-.24-1.19-.24-1.19-.24-1.19-.12-1.2-.12-1.07-.12h-2.62l-1.31.24-1.2.24-1.07.24-.95.48-.84.48-1.07.96-.72,1.08-.47,1.08-.12,1.19v.24l.12,1.55.59,1.31.48.72.83.84,1.08.6.95.6,1.19.48,1.31.48,1.43.48.95.24.95.36,1.08.24,1.07.36,1.19.24,1.32.36,1.31.36,1.31.36,1.31.24,1.19.36,1.31.36,1.2.24,1.19.36,1.19.36,1.07.36,1.2.36,1.07.36,1.07.36,1.31.47,1.19.6,1.19.48,1.19.6,1.08.6,1.07.6.95.6.96.72.95.6.95.84.96.84.83.96.84.84.71.96.72,1.07.59.96.6,1.08.48.96.36,1.07.35,1.08.24,1.08.24,1.2.24,1.2.12,1.19.12,1.31v2.87Z"/>
</svg>