<?xml version="1.0" encoding="UTF-8"?>
<svg id="Ebene_1" xmlns="http://www.w3.org/2000/svg" version="1.1" xmlns:v="https://vecta.io/nano" viewBox="0 0 1000 278.57">
  <!-- Generator: Adobe Illustrator 29.6.1, SVG Export Plug-In . SVG Version: 2.1.1 Build 9)  -->
  <defs>
    <style>
      .st0 {
        fill: #fff;
      }
    </style>
  </defs>
  <path class="st0" d="M0,278.58V0h1000v278.58H0ZM173.8,57.15l-33.32,126.19-33.32-126.19h-30.96l49.99,166.66h28.58l49.99-166.66h-30.96ZM347.6,57.15h-40.47l-49.99,166.66h33.32l10.24-40.47h50.96l10.24,40.47h33.32l-47.61-166.66ZM580.92,195.25h-71.43V57.15h-30.96v166.66h102.39v-28.56ZM721.4,57.15l-33.32,126.19-33.32-126.19h-30.96l49.99,166.66h28.58l49.99-166.66h-30.96ZM892.82,150.01h-45.23v-26.2h40.47v-21.44h-40.47v-23.82h45.23v-21.44h-69.05v114.28h69.05v-21.39ZM326.19,83.35l18.8,73.81h-37.63l18.83-73.81Z"/>
</svg>